<svg xmlns="http://www.w3.org/2000/svg" xmlns:xlink="http://www.w3.org/1999/xlink" width="1920" zoomAndPan="magnify" viewBox="0 0 1440 809.999993" height="1080" preserveAspectRatio="xMidYMid meet" version="1.0"><defs><g/></defs><rect x="-144" width="1728" fill="#ffffff" y="-80.999999" height="971.999992" fill-opacity="1"/><rect x="-144" width="1728" fill="#000000" y="-80.999999" height="971.999992" fill-opacity="1"/><g fill="#ffffff" fill-opacity="1"><g transform="translate(445.465304, 701.53351)"><g><path d="M 35.578125 0 L 14.859375 0 C 12.753906 0 11.703125 -1.050781 11.703125 -3.15625 L 11.703125 -115.109375 C 11.703125 -117.210938 12.753906 -118.265625 14.859375 -118.265625 L 35.578125 -118.265625 C 37.679688 -118.265625 38.734375 -117.210938 38.734375 -115.109375 L 38.734375 -70.53125 L 79.84375 -116.578125 C 80.820312 -117.703125 82.128906 -118.265625 83.765625 -118.265625 L 110.265625 -118.265625 C 111.597656 -118.265625 112.429688 -117.863281 112.765625 -117.0625 C 113.097656 -116.269531 112.828125 -115.363281 111.953125 -114.34375 L 66.296875 -62.671875 L 112.1875 -3.84375 C 113.050781 -2.820312 113.289062 -1.925781 112.90625 -1.15625 C 112.53125 -0.382812 111.671875 0 110.328125 0 L 81.53125 0 C 79.945312 0 78.691406 -0.613281 77.765625 -1.84375 L 38.734375 -52.4375 L 38.734375 -3.15625 C 38.734375 -1.050781 37.679688 0 35.578125 0 Z M 35.578125 0 "/></g></g></g><g fill="#ffffff" fill-opacity="1"><g transform="translate(646.001444, 701.53351)"><g><path d="M 60.515625 3 C 53.898438 3 47.585938 2.191406 41.578125 0.578125 C 35.566406 -1.035156 30.238281 -3.535156 25.59375 -6.921875 C 20.957031 -10.316406 17.300781 -14.679688 14.625 -20.015625 C 11.957031 -25.359375 10.625 -31.773438 10.625 -39.265625 L 10.625 -115.109375 C 10.625 -117.210938 11.675781 -118.265625 13.78125 -118.265625 L 35.03125 -118.265625 C 37.132812 -118.265625 38.1875 -117.210938 38.1875 -115.109375 L 38.1875 -45.65625 C 38.1875 -39.851562 39.054688 -35.179688 40.796875 -31.640625 C 42.546875 -28.097656 45.085938 -25.519531 48.421875 -23.90625 C 51.765625 -22.289062 55.796875 -21.484375 60.515625 -21.484375 C 65.285156 -21.484375 69.335938 -22.289062 72.671875 -23.90625 C 76.015625 -25.519531 78.546875 -28.097656 80.265625 -31.640625 C 81.984375 -35.179688 82.84375 -39.851562 82.84375 -45.65625 L 82.84375 -115.109375 C 82.84375 -117.210938 83.894531 -118.265625 86 -118.265625 L 107.25 -118.265625 C 109.351562 -118.265625 110.40625 -117.210938 110.40625 -115.109375 L 110.40625 -39.265625 C 110.40625 -31.773438 109.097656 -25.359375 106.484375 -20.015625 C 103.867188 -14.679688 100.265625 -10.316406 95.671875 -6.921875 C 91.078125 -3.535156 85.765625 -1.035156 79.734375 0.578125 C 73.703125 2.191406 67.296875 3 60.515625 3 Z M 60.515625 3 "/></g></g></g><g fill="#ffffff" fill-opacity="1"><g transform="translate(850.772173, 701.53351)"><g><path d="M 34.796875 0 L 15.015625 0 C 12.910156 0 11.859375 -1.050781 11.859375 -3.15625 L 11.859375 -115.578125 C 11.859375 -118.296875 12.613281 -120.023438 14.125 -120.765625 C 15.644531 -121.515625 17.457031 -120.882812 19.5625 -118.875 L 86.390625 -52.28125 L 86.390625 -115.109375 C 86.390625 -117.210938 87.441406 -118.265625 89.546875 -118.265625 L 109.328125 -118.265625 C 111.429688 -118.265625 112.484375 -117.210938 112.484375 -115.109375 L 112.484375 -2.765625 C 112.484375 -0.972656 112.097656 0.394531 111.328125 1.34375 C 110.566406 2.289062 109.554688 2.675781 108.296875 2.5 C 107.035156 2.320312 105.632812 1.488281 104.09375 0 L 37.875 -67.53125 L 37.875 -3.15625 C 37.875 -1.050781 36.847656 0 34.796875 0 Z M 34.796875 0 "/></g></g></g><g fill="#ffffff" fill-opacity="1"><g transform="translate(81.290589, 678.424501)"><g><path d="M 170.5625 -242.5625 C 168.445312 -239.195312 167.390625 -235.617188 167.390625 -231.828125 C 167.390625 -227.617188 168.445312 -223.828125 170.5625 -220.453125 L 310.796875 -29.6875 C 315.421875 -23.789062 316.050781 -17.265625 312.6875 -10.109375 C 309.3125 -3.367188 303.835938 0 296.265625 0 L 253.9375 0 C 247.625 0 242.570312 -2.523438 238.78125 -7.578125 L 122.546875 -165.5 C 120.859375 -167.1875 119.382812 -168.03125 118.125 -168.03125 C 116.4375 -168.03125 115.171875 -167.1875 114.328125 -165.5 L 103.59375 -151.609375 C 103.175781 -151.179688 102.96875 -150.128906 102.96875 -148.453125 L 102.96875 -18.953125 C 102.96875 -13.472656 101.28125 -9.050781 97.90625 -5.6875 C 94.113281 -1.894531 89.484375 0 84.015625 0 L 50.53125 0 C 45.0625 0 40.640625 -1.894531 37.265625 -5.6875 C 33.472656 -9.050781 31.578125 -13.472656 31.578125 -18.953125 L 31.578125 -444.078125 C 31.578125 -449.546875 33.472656 -454.175781 37.265625 -457.96875 C 40.640625 -461.34375 45.0625 -463.03125 50.53125 -463.03125 L 84.015625 -463.03125 C 89.484375 -463.03125 94.113281 -461.34375 97.90625 -457.96875 C 101.28125 -454.175781 102.96875 -449.546875 102.96875 -444.078125 L 102.96875 -286.78125 C 102.96875 -283.832031 104.226562 -282.148438 106.75 -281.734375 C 109.28125 -280.890625 111.175781 -281.519531 112.4375 -283.625 L 238.78125 -455.453125 C 242.988281 -460.503906 248.039062 -463.03125 253.9375 -463.03125 L 296.265625 -463.03125 C 303.835938 -463.03125 309.3125 -459.660156 312.6875 -452.921875 C 316.050781 -445.765625 315.421875 -439.238281 310.796875 -433.34375 Z M 170.5625 -242.5625 "/></g></g></g><g fill="#ffffff" fill-opacity="1"><g transform="translate(372.987467, 531.97811)"><g><path d="M 288.6875 0 C 279.84375 0 273.945312 -4.628906 271 -13.890625 C 269.726562 -18.523438 268.039062 -25.265625 265.9375 -34.109375 C 263.414062 -42.535156 260.257812 -54.117188 256.46875 -68.859375 C 253.519531 -78.117188 247.410156 -82.75 238.140625 -82.75 L 137.078125 -82.75 C 127.804688 -82.75 121.695312 -78.117188 118.75 -68.859375 C 115.800781 -57.484375 113.273438 -47.164062 111.171875 -37.90625 C 108.648438 -28.632812 106.335938 -20.628906 104.234375 -13.890625 C 101.285156 -4.628906 95.390625 0 86.546875 0 L 50.53125 0 C 44.632812 0 39.789062 -2.523438 36 -7.578125 C 32.21875 -12.210938 31.164062 -17.476562 32.84375 -23.375 C 37.0625 -38.957031 42.328125 -58.75 48.640625 -82.75 C 54.953125 -106.332031 61.898438 -132.019531 69.484375 -159.8125 C 77.066406 -187.1875 84.859375 -215.613281 92.859375 -245.09375 C 100.441406 -274.15625 107.8125 -301.953125 114.96875 -328.484375 C 121.707031 -354.585938 128.023438 -378.378906 133.921875 -399.859375 C 139.390625 -420.910156 143.8125 -437.332031 147.1875 -449.125 C 148.03125 -453.34375 150.132812 -456.710938 153.5 -459.234375 C 156.863281 -461.765625 160.65625 -463.03125 164.875 -463.03125 L 210.359375 -463.03125 C 214.566406 -463.03125 218.351562 -461.765625 221.71875 -459.234375 C 225.09375 -456.710938 227.203125 -453.34375 228.046875 -449.125 C 242.773438 -393.539062 255.617188 -345.957031 266.578125 -306.375 C 277.097656 -266.78125 285.941406 -233.507812 293.109375 -206.5625 C 300.265625 -179.613281 306.160156 -157.925781 310.796875 -141.5 C 315.003906 -125.070312 318.582031 -112.015625 321.53125 -102.328125 C 324.050781 -92.222656 326.15625 -84.644531 327.84375 -79.59375 C 329.101562 -74.113281 330.367188 -69.0625 331.640625 -64.4375 C 332.898438 -59.800781 334.375 -54.535156 336.0625 -48.640625 C 337.320312 -42.742188 339.425781 -34.320312 342.375 -23.375 C 344.0625 -17.476562 343.007812 -12.210938 339.21875 -7.578125 C 335.425781 -2.523438 330.582031 0 324.6875 0 Z M 147.8125 -177.5 C 146.125 -171.601562 147.175781 -166.34375 150.96875 -161.71875 C 154.757812 -156.65625 159.601562 -154.125 165.5 -154.125 L 209.71875 -154.125 C 215.613281 -154.125 220.457031 -156.65625 224.25 -161.71875 C 228.039062 -166.34375 229.09375 -171.601562 227.40625 -177.5 C 224.039062 -189.289062 220.671875 -201.925781 217.296875 -215.40625 C 213.503906 -228.882812 209.503906 -243.203125 205.296875 -258.359375 C 204.035156 -262.992188 201.71875 -266.570312 198.34375 -269.09375 C 194.976562 -271.195312 191.398438 -272.25 187.609375 -272.25 C 183.816406 -272.25 180.238281 -271.195312 176.875 -269.09375 C 173.5 -266.570312 171.179688 -262.992188 169.921875 -258.359375 C 166.128906 -244.878906 162.550781 -231.40625 159.1875 -217.9375 C 155.394531 -204.457031 151.601562 -190.976562 147.8125 -177.5 Z M 147.8125 -177.5 "/></g></g></g><g fill="#ffffff" fill-opacity="1"><g transform="translate(645.789982, 529.162468)"><g><path d="M 288.6875 0 C 279.84375 0 273.945312 -4.628906 271 -13.890625 C 269.726562 -18.523438 268.039062 -25.265625 265.9375 -34.109375 C 263.414062 -42.535156 260.257812 -54.117188 256.46875 -68.859375 C 253.519531 -78.117188 247.410156 -82.75 238.140625 -82.75 L 137.078125 -82.75 C 127.804688 -82.75 121.695312 -78.117188 118.75 -68.859375 C 115.800781 -57.484375 113.273438 -47.164062 111.171875 -37.90625 C 108.648438 -28.632812 106.335938 -20.628906 104.234375 -13.890625 C 101.285156 -4.628906 95.390625 0 86.546875 0 L 50.53125 0 C 44.632812 0 39.789062 -2.523438 36 -7.578125 C 32.21875 -12.210938 31.164062 -17.476562 32.84375 -23.375 C 37.0625 -38.957031 42.328125 -58.75 48.640625 -82.75 C 54.953125 -106.332031 61.898438 -132.019531 69.484375 -159.8125 C 77.066406 -187.1875 84.859375 -215.613281 92.859375 -245.09375 C 100.441406 -274.15625 107.8125 -301.953125 114.96875 -328.484375 C 121.707031 -354.585938 128.023438 -378.378906 133.921875 -399.859375 C 139.390625 -420.910156 143.8125 -437.332031 147.1875 -449.125 C 148.03125 -453.34375 150.132812 -456.710938 153.5 -459.234375 C 156.863281 -461.765625 160.65625 -463.03125 164.875 -463.03125 L 210.359375 -463.03125 C 214.566406 -463.03125 218.351562 -461.765625 221.71875 -459.234375 C 225.09375 -456.710938 227.203125 -453.34375 228.046875 -449.125 C 242.773438 -393.539062 255.617188 -345.957031 266.578125 -306.375 C 277.097656 -266.78125 285.941406 -233.507812 293.109375 -206.5625 C 300.265625 -179.613281 306.160156 -157.925781 310.796875 -141.5 C 315.003906 -125.070312 318.582031 -112.015625 321.53125 -102.328125 C 324.050781 -92.222656 326.15625 -84.644531 327.84375 -79.59375 C 329.101562 -74.113281 330.367188 -69.0625 331.640625 -64.4375 C 332.898438 -59.800781 334.375 -54.535156 336.0625 -48.640625 C 337.320312 -42.742188 339.425781 -34.320312 342.375 -23.375 C 344.0625 -17.476562 343.007812 -12.210938 339.21875 -7.578125 C 335.425781 -2.523438 330.582031 0 324.6875 0 Z M 147.8125 -177.5 C 146.125 -171.601562 147.175781 -166.34375 150.96875 -161.71875 C 154.757812 -156.65625 159.601562 -154.125 165.5 -154.125 L 209.71875 -154.125 C 215.613281 -154.125 220.457031 -156.65625 224.25 -161.71875 C 228.039062 -166.34375 229.09375 -171.601562 227.40625 -177.5 C 224.039062 -189.289062 220.671875 -201.925781 217.296875 -215.40625 C 213.503906 -228.882812 209.503906 -243.203125 205.296875 -258.359375 C 204.035156 -262.992188 201.71875 -266.570312 198.34375 -269.09375 C 194.976562 -271.195312 191.398438 -272.25 187.609375 -272.25 C 183.816406 -272.25 180.238281 -271.195312 176.875 -269.09375 C 173.5 -266.570312 171.179688 -262.992188 169.921875 -258.359375 C 166.128906 -244.878906 162.550781 -231.40625 159.1875 -217.9375 C 155.394531 -204.457031 151.601562 -190.976562 147.8125 -177.5 Z M 147.8125 -177.5 "/></g></g></g><g fill="#ffffff" fill-opacity="1"><g transform="translate(1001.133364, 678.424501)"><g><path d="M 307.625 -463.03125 C 312.6875 -463.03125 317.109375 -461.34375 320.890625 -457.96875 C 324.265625 -454.175781 325.953125 -449.753906 325.953125 -444.703125 L 325.953125 -18.3125 C 325.953125 -13.257812 324.265625 -9.050781 320.890625 -5.6875 C 317.109375 -1.894531 312.6875 0 307.625 0 L 258.984375 0 C 251.410156 0 245.9375 -3.578125 242.5625 -10.734375 L 116.234375 -281.09375 C 114.960938 -284.46875 112.4375 -285.734375 108.65625 -284.890625 C 104.863281 -284.046875 102.96875 -281.726562 102.96875 -277.9375 L 102.96875 -18.3125 C 102.96875 -13.257812 101.28125 -9.050781 97.90625 -5.6875 C 94.113281 -1.894531 89.484375 0 84.015625 0 L 49.90625 0 C 44.851562 0 40.640625 -1.894531 37.265625 -5.6875 C 33.472656 -9.050781 31.578125 -13.257812 31.578125 -18.3125 L 31.578125 -444.703125 C 31.578125 -449.753906 33.472656 -454.175781 37.265625 -457.96875 C 40.640625 -461.34375 44.851562 -463.03125 49.90625 -463.03125 L 98.546875 -463.03125 C 106.546875 -463.03125 112.019531 -459.445312 114.96875 -452.28125 L 241.296875 -181.921875 C 242.566406 -178.554688 245.304688 -177.296875 249.515625 -178.140625 C 252.878906 -178.984375 254.5625 -181.296875 254.5625 -185.078125 L 254.5625 -444.703125 C 254.5625 -449.753906 256.457031 -454.175781 260.25 -457.96875 C 264.039062 -461.34375 268.460938 -463.03125 273.515625 -463.03125 Z M 307.625 -463.03125 "/></g></g></g></svg>